<?xml version="1.0" encoding="UTF-8" standalone="no"?><svg xmlns="http://www.w3.org/2000/svg" xmlns:xlink="http://www.w3.org/1999/xlink" contentScriptType="application/ecmascript" contentStyleType="text/css" height="1936px" preserveAspectRatio="none" style="width:1439px;height:1936px;background:#FFFFFF;" version="1.1" viewBox="0 0 1439 1936" width="1439px" zoomAndPan="magnify"><defs><filter height="300%" id="fwywdr0phdsvy" width="300%" x="-1" y="-1"><feGaussianBlur result="blurOut" stdDeviation="2.0"/><feColorMatrix in="blurOut" result="blurOut2" type="matrix" values="0 0 0 0 0 0 0 0 0 0 0 0 0 0 0 0 0 0 .4 0"/><feOffset dx="4.0" dy="4.0" in="blurOut2" result="blurOut3"/><feBlend in="SourceGraphic" in2="blurOut3" mode="normal"/></filter></defs><g><!--MD5=[e40792976c9b09ebfa636a36cd3052af]
cluster Amplifier-Module--><rect fill="#FFFFFF" filter="url(#fwywdr0phdsvy)" height="1917" style="stroke:#000000;stroke-width:1.5;" width="1288" x="139" y="7"/><text fill="#000000" font-family="sans-serif" font-size="14" font-weight="bold" lengthAdjust="spacing" textLength="117" x="724.5" y="23.5332">Amplifier-Module</text><!--MD5=[a5a70560d8399c6bf202566f3c04e9ce]
cluster Select-Source--><polygon fill="#FFFFFF" filter="url(#fwywdr0phdsvy)" points="164,467,265,467,272,490.6094,724,490.6094,724,1068,164,1068,164,467" style="stroke:#000000;stroke-width:1.5;"/><line style="stroke:#000000;stroke-width:1.5;" x1="164" x2="272" y1="490.6094" y2="490.6094"/><text fill="#000000" font-family="sans-serif" font-size="14" font-weight="bold" lengthAdjust="spacing" textLength="95" x="168" y="483.5332">Select-Source</text><!--MD5=[1425a85d9c7ff0da8918b3795cad451d]
cluster Volume--><polygon fill="#FFFFFF" filter="url(#fwywdr0phdsvy)" points="163,1092,220,1092,227,1115.6094,694.5,1115.6094,694.5,1406,163,1406,163,1092" style="stroke:#000000;stroke-width:1.5;"/><line style="stroke:#000000;stroke-width:1.5;" x1="163" x2="227" y1="1115.6094" y2="1115.6094"/><text fill="#000000" font-family="sans-serif" font-size="14" font-weight="bold" lengthAdjust="spacing" textLength="51" x="167" y="1108.5332">Volume</text><!--MD5=[3a938256689dc9d6aa2087c676872f2f]
cluster Internet-Radio--><polygon fill="#FFFFFF" filter="url(#fwywdr0phdsvy)" points="458,51,562,51,569,74.6094,1403,74.6094,1403,250,458,250,458,51" style="stroke:#000000;stroke-width:1.5;"/><line style="stroke:#000000;stroke-width:1.5;" x1="458" x2="569" y1="74.6094" y2="74.6094"/><text fill="#000000" font-family="sans-serif" font-size="14" font-weight="bold" lengthAdjust="spacing" textLength="98" x="462" y="67.5332">Internet-Radio</text><!--MD5=[51f93b011d842b0c9699ca38dce3283e]
cluster DAB-Radio--><polygon fill="#FFFFFF" filter="url(#fwywdr0phdsvy)" points="467,274,548,274,555,297.6094,1056,297.6094,1056,443,467,443,467,274" style="stroke:#000000;stroke-width:1.5;"/><line style="stroke:#000000;stroke-width:1.5;" x1="467" x2="555" y1="297.6094" y2="297.6094"/><text fill="#000000" font-family="sans-serif" font-size="14" font-weight="bold" lengthAdjust="spacing" textLength="75" x="471" y="290.5332">DAB-Radio</text><!--MD5=[1406a7c699a65991d889313e83586b61]
cluster CD/DVD--><polygon fill="#FFFFFF" filter="url(#fwywdr0phdsvy)" points="164.5,1430,223.5,1430,230.5,1453.6094,699,1453.6094,699,1850,164.5,1850,164.5,1430" style="stroke:#000000;stroke-width:1.5;"/><line style="stroke:#000000;stroke-width:1.5;" x1="164.5" x2="230.5" y1="1453.6094" y2="1453.6094"/><text fill="#000000" font-family="sans-serif" font-size="14" font-weight="bold" lengthAdjust="spacing" textLength="53" x="168.5" y="1446.5332">CD/DVD</text><ellipse cx="249.3923" cy="332.8785" fill="#FEFECE" filter="url(#fwywdr0phdsvy)" rx="87.3923" ry="19.8785" style="stroke:#A80036;stroke-width:1.5;"/><text fill="#000000" font-family="sans-serif" font-size="14" lengthAdjust="spacing" textLength="132" x="183.3923" y="336.607">Change radio station</text><ellipse cx="584.4744" cy="1036.0553" fill="#FEFECE" filter="url(#fwywdr0phdsvy)" rx="56.4744" ry="15.5553" style="stroke:#A80036;stroke-width:1.5;"/><text fill="#000000" font-family="sans-serif" font-size="14" lengthAdjust="spacing" textLength="63" x="549.9744" y="1040.5719">Select CD</text><ellipse cx="584.6242" cy="970.1042" fill="#FEFECE" filter="url(#fwywdr0phdsvy)" rx="63.1242" ry="15.6042" style="stroke:#A80036;stroke-width:1.5;"/><text fill="#000000" font-family="sans-serif" font-size="14" lengthAdjust="spacing" textLength="72" x="545.6242" y="974.6208">Select DVD</text><ellipse cx="584.6203" cy="900.8241" fill="#FEFECE" filter="url(#fwywdr0phdsvy)" rx="77.1203" ry="17.8241" style="stroke:#A80036;stroke-width:1.5;"/><text fill="#000000" font-family="sans-serif" font-size="14" lengthAdjust="spacing" textLength="107" x="528.7783" y="905.1856">Select DAB radio</text><ellipse cx="249.457" cy="854.7914" fill="#FEFECE" filter="url(#fwywdr0phdsvy)" rx="69.457" ry="16.2914" style="stroke:#A80036;stroke-width:1.5;"/><text fill="#000000" font-family="sans-serif" font-size="14" lengthAdjust="spacing" textLength="86" x="203.457" y="859.308">Select source</text><ellipse cx="584.7219" cy="809.1577" fill="#FEFECE" filter="url(#fwywdr0phdsvy)" rx="88.7219" ry="38.6577" style="stroke:#A80036;stroke-width:1.5;"/><text fill="#000000" font-family="sans-serif" font-size="14" font-style="italic" lengthAdjust="spacing" textLength="94" x="532.822" y="794.8876">«touchscreen»</text><text fill="#000000" font-family="sans-serif" font-size="14" lengthAdjust="spacing" textLength="86" x="534.822" y="812.4969">Select source</text><text fill="#000000" font-family="sans-serif" font-size="14" lengthAdjust="spacing" textLength="111" x="526.322" y="830.1063">from touchscreen</text><ellipse cx="584.4061" cy="696.9112" fill="#FEFECE" filter="url(#fwywdr0phdsvy)" rx="70.4061" ry="37.9112" style="stroke:#A80036;stroke-width:1.5;"/><text fill="#000000" font-family="sans-serif" font-size="14" font-style="italic" lengthAdjust="spacing" textLength="67" x="542.1561" y="683.8184">«physical»</text><text fill="#000000" font-family="sans-serif" font-size="14" lengthAdjust="spacing" textLength="86" x="530.6561" y="701.4278">Select source</text><text fill="#000000" font-family="sans-serif" font-size="14" lengthAdjust="spacing" textLength="64" x="545.6561" y="719.0371">from knob</text><ellipse cx="584.4228" cy="597.0846" fill="#FEFECE" filter="url(#fwywdr0phdsvy)" rx="123.4228" ry="27.0846" style="stroke:#A80036;stroke-width:1.5;"/><text fill="#000000" font-family="sans-serif" font-size="14" font-style="italic" lengthAdjust="spacing" textLength="94" x="531.4881" y="589.561">«touchscreen»</text><text fill="#000000" font-family="sans-serif" font-size="14" lengthAdjust="spacing" textLength="187" x="484.9881" y="607.1704">Display source control screen</text><ellipse cx="584.5269" cy="518.9517" fill="#FEFECE" filter="url(#fwywdr0phdsvy)" rx="35.5269" ry="15.4517" style="stroke:#A80036;stroke-width:1.5;"/><text fill="#000000" font-family="sans-serif" font-size="14" lengthAdjust="spacing" textLength="34" x="567.5269" y="522.6802">sel_ir</text><ellipse cx="249.5039" cy="1296.0008" fill="#FEFECE" filter="url(#fwywdr0phdsvy)" rx="70.5039" ry="16.5008" style="stroke:#A80036;stroke-width:1.5;"/><text fill="#000000" font-family="sans-serif" font-size="14" lengthAdjust="spacing" textLength="89" x="202.0039" y="1300.5174">Adjust volume</text><ellipse cx="584.311" cy="1351.801" fill="#FEFECE" filter="url(#fwywdr0phdsvy)" rx="84.811" ry="37.301" style="stroke:#A80036;stroke-width:1.5;"/><text fill="#000000" font-family="sans-serif" font-size="14" font-style="italic" lengthAdjust="spacing" textLength="67" x="546.0705" y="1335.5872">«physical»</text><text fill="#000000" font-family="sans-serif" font-size="14" lengthAdjust="spacing" textLength="89" x="533.0705" y="1353.1965">Adjust volume</text><text fill="#000000" font-family="sans-serif" font-size="14" lengthAdjust="spacing" textLength="110" x="526.5705" y="1370.8059">with volume knob</text><ellipse cx="584.3916" cy="1240.8061" fill="#FEFECE" filter="url(#fwywdr0phdsvy)" rx="93.8916" ry="38.3061" style="stroke:#A80036;stroke-width:1.5;"/><text fill="#000000" font-family="sans-serif" font-size="14" font-style="italic" lengthAdjust="spacing" textLength="94" x="532.4106" y="1225.9531">«touchscreen»</text><text fill="#000000" font-family="sans-serif" font-size="14" lengthAdjust="spacing" textLength="89" x="532.9106" y="1243.5625">Adjust volume</text><text fill="#000000" font-family="sans-serif" font-size="14" lengthAdjust="spacing" textLength="120" x="521.4106" y="1261.1718">using touch screen</text><ellipse cx="584.6163" cy="1148.1233" fill="#FEFECE" filter="url(#fwywdr0phdsvy)" rx="86.1163" ry="19.6233" style="stroke:#A80036;stroke-width:1.5;"/><text fill="#000000" font-family="sans-serif" font-size="14" lengthAdjust="spacing" textLength="129" x="520.1163" y="1151.8518">Display volume level</text><ellipse cx="584.434" cy="198.9868" fill="#FEFECE" filter="url(#fwywdr0phdsvy)" rx="110.434" ry="24.4868" style="stroke:#A80036;stroke-width:1.5;"/><text fill="#000000" font-family="sans-serif" font-size="14" lengthAdjust="spacing" textLength="184" x="492.434" y="202.7153">Change internet radio station</text><ellipse cx="943.4131" cy="205.9849" fill="#FEFECE" filter="url(#fwywdr0phdsvy)" rx="109.4131" ry="27.9849" style="stroke:#A80036;stroke-width:1.5;"/><text fill="#000000" font-family="sans-serif" font-size="14" lengthAdjust="spacing" textLength="134" x="871.4131" y="201.6968">Display internet radio</text><text fill="#000000" font-family="sans-serif" font-size="14" lengthAdjust="spacing" textLength="90" x="897.4131" y="219.3062">station groups</text><ellipse cx="943.4131" cy="114.9849" fill="#FEFECE" filter="url(#fwywdr0phdsvy)" rx="109.4131" ry="27.9849" style="stroke:#A80036;stroke-width:1.5;"/><text fill="#000000" font-family="sans-serif" font-size="14" lengthAdjust="spacing" textLength="134" x="871.4131" y="110.6968">Display internet radio</text><text fill="#000000" font-family="sans-serif" font-size="14" lengthAdjust="spacing" textLength="105" x="889.9131" y="128.3062">stations in group</text><ellipse cx="1282.0754" cy="153.9651" fill="#FEFECE" filter="url(#fwywdr0phdsvy)" rx="105.0754" ry="27.9651" style="stroke:#A80036;stroke-width:1.5;"/><text fill="#000000" font-family="sans-serif" font-size="14" lengthAdjust="spacing" textLength="128" x="1213.0754" y="149.677">Load internet radion</text><text fill="#000000" font-family="sans-serif" font-size="14" lengthAdjust="spacing" textLength="112" x="1225.0754" y="167.2863">stations from web</text><ellipse cx="943.511" cy="405.2022" fill="#FEFECE" filter="url(#fwywdr0phdsvy)" rx="96.511" ry="21.7022" style="stroke:#A80036;stroke-width:1.5;"/><text fill="#000000" font-family="sans-serif" font-size="14" lengthAdjust="spacing" textLength="153" x="867.011" y="408.9307">Select DAB radio station</text><ellipse cx="584.3975" cy="333.1795" fill="#FEFECE" filter="url(#fwywdr0phdsvy)" rx="101.3975" ry="22.6795" style="stroke:#A80036;stroke-width:1.5;"/><text fill="#000000" font-family="sans-serif" font-size="14" lengthAdjust="spacing" textLength="164" x="502.3975" y="336.908">Change DAB radio station</text><ellipse cx="584.5069" cy="408.9014" fill="#FEFECE" filter="url(#fwywdr0phdsvy)" rx="77.5069" ry="17.9014" style="stroke:#A80036;stroke-width:1.5;"/><text fill="#000000" font-family="sans-serif" font-size="14" lengthAdjust="spacing" textLength="108" x="528.3567" y="413.216">sel_radio_station</text><ellipse cx="249.7356" cy="1482.0492" fill="#FEFECE" filter="url(#fwywdr0phdsvy)" rx="55.7356" ry="15.5492" style="stroke:#A80036;stroke-width:1.5;"/><text fill="#000000" font-family="sans-serif" font-size="14" lengthAdjust="spacing" textLength="62" x="215.7356" y="1486.5658">Play track</text><ellipse cx="249.4169" cy="1548.8834" fill="#FEFECE" filter="url(#fwywdr0phdsvy)" rx="67.4169" ry="15.8834" style="stroke:#A80036;stroke-width:1.5;"/><text fill="#000000" font-family="sans-serif" font-size="14" lengthAdjust="spacing" textLength="80" x="206.4169" y="1553.4">Pause Track</text><ellipse cx="249.2537" cy="1615.7507" fill="#FEFECE" filter="url(#fwywdr0phdsvy)" rx="66.7537" ry="15.7507" style="stroke:#A80036;stroke-width:1.5;"/><text fill="#000000" font-family="sans-serif" font-size="14" lengthAdjust="spacing" textLength="78" x="207.2537" y="1620.2673">Stop playing</text><ellipse cx="249.6119" cy="1683.2224" fill="#FEFECE" filter="url(#fwywdr0phdsvy)" rx="69.1119" ry="16.2224" style="stroke:#A80036;stroke-width:1.5;"/><text fill="#000000" font-family="sans-serif" font-size="14" lengthAdjust="spacing" textLength="85" x="204.1119" y="1687.739">Change track</text><ellipse cx="584.5842" cy="1817.8168" fill="#FEFECE" filter="url(#fwywdr0phdsvy)" rx="67.0842" ry="15.8168" style="stroke:#A80036;stroke-width:1.5;"/><text fill="#000000" font-family="sans-serif" font-size="14" lengthAdjust="spacing" textLength="79" x="542.0842" y="1822.3334">Select Track</text><ellipse cx="584.2965" cy="1738.9034" fill="#FEFECE" filter="url(#fwywdr0phdsvy)" rx="72.2965" ry="27.9034" style="stroke:#A80036;stroke-width:1.5;"/><text fill="#000000" font-family="sans-serif" font-size="14" lengthAdjust="spacing" textLength="82" x="541.2965" y="1733.8272">Jump to next</text><text fill="#000000" font-family="sans-serif" font-size="14" lengthAdjust="spacing" textLength="31" x="570.7965" y="1751.4366">track</text><ellipse cx="584.3941" cy="1647.905" fill="#FEFECE" filter="url(#fwywdr0phdsvy)" rx="91.3941" ry="27.905" style="stroke:#A80036;stroke-width:1.5;"/><text fill="#000000" font-family="sans-serif" font-size="14" lengthAdjust="spacing" textLength="109" x="527.1794" y="1643.0302">Jump to previous</text><text fill="#000000" font-family="sans-serif" font-size="14" lengthAdjust="spacing" textLength="31" x="570.1794" y="1660.6396">track</text><ellipse cx="584.7239" cy="1563.1448" fill="#FEFECE" filter="url(#fwywdr0phdsvy)" rx="98.7239" ry="22.1448" style="stroke:#A80036;stroke-width:1.5;"/><text fill="#000000" font-family="sans-serif" font-size="14" lengthAdjust="spacing" textLength="158" x="505.7239" y="1566.8733">Display CD track number</text><ellipse cx="584.4661" cy="1485.7932" fill="#FEFECE" filter="url(#fwywdr0phdsvy)" rx="86.9661" ry="19.7932" style="stroke:#A80036;stroke-width:1.5;"/><text fill="#000000" font-family="sans-serif" font-size="14" lengthAdjust="spacing" textLength="131" x="518.9661" y="1489.5217">Display CD track title</text><!--MD5=[327dd75f32bf4b002a156b21b8b82a11]
entity Media-Centre--><polygon fill="#FFFFFF" filter="url(#fwywdr0phdsvy)" points="183,1866.5,292,1866.5,299,1890.1094,316,1890.1094,316,1907.1094,183,1907.1094,183,1866.5" style="stroke:#000000;stroke-width:1.5;"/><line style="stroke:#000000;stroke-width:1.5;" x1="183" x2="299" y1="1890.1094" y2="1890.1094"/><text fill="#000000" font-family="sans-serif" font-size="14" font-weight="bold" lengthAdjust="spacing" textLength="91" x="193" y="1884.0332">Media-Centre</text><!--MD5=[8fc3522a43f8c7199df5e09e5bb0188e]
entity user--><ellipse cx="49" cy="1459" fill="#FEFECE" filter="url(#fwywdr0phdsvy)" rx="16" ry="16" style="stroke:#A80036;stroke-width:1.5;"/><path d="M49,1479 C53,1479 56,1479 60,1475 C68,1475 76,1483 76,1491 L76,1495 C76,1499 72,1503 68,1503 L30,1503 C26,1503 22,1499 22,1495 L22,1491 C22,1483 30,1475 38,1475 C42,1479 45,1479 49,1479 " fill="#FEFECE" filter="url(#fwywdr0phdsvy)" style="stroke:#A80036;stroke-width:1.5;"/><text fill="#000000" font-family="sans-serif" font-size="14" lengthAdjust="spacing" textLength="86" x="6" y="1519.0332">Amplifer User</text><!--MD5=[92ac5de73541ea5da13110b37d826383]
reverse link sel_source to sel_dab--><path d="M315.25,863.94 C373.68,872.02 459.24,883.83 517.93,891.94 " fill="none" id="sel_source-backto-sel_dab" style="stroke:#A80036;stroke-width:1.0;stroke-dasharray:7.0,7.0;"/><polygon fill="#A80036" points="310.03,863.22,318.397,868.4155,314.9828,863.9051,319.4932,860.4909,310.03,863.22" style="stroke:#A80036;stroke-width:1.0;"/><text fill="#000000" font-family="sans-serif" font-size="13" lengthAdjust="spacing" textLength="60" x="369" y="868.4951">«extends»</text><!--MD5=[2047572051654d97756964848e8173cd]
reverse link sel_source to sel_cd--><path d="M270.15,875.27 C303.6,908.36 375.3,973.27 450,1003 C477.84,1014.08 510.47,1022.23 536.5,1027.65 " fill="none" id="sel_source-backto-sel_cd" style="stroke:#A80036;stroke-width:1.0;stroke-dasharray:7.0,7.0;"/><polygon fill="#A80036" points="266.26,871.39,269.8141,880.5752,269.8027,874.9184,275.4595,874.907,266.26,871.39" style="stroke:#A80036;stroke-width:1.0;"/><text fill="#000000" font-family="sans-serif" font-size="13" lengthAdjust="spacing" textLength="60" x="369" y="953.4951">«extends»</text><!--MD5=[672eafeadde916be63382cf57ba9af50]
reverse link sel_source to sel_ir--><path d="M319.07,846.71 C325.79,843.58 331.97,839.44 337,834 C393.85,772.52 331.61,723.89 367,648 C390.84,596.88 401.92,581.49 450,552 C480.53,533.28 521.11,525.17 549.49,521.66 " fill="none" id="sel_source-backto-sel_ir" style="stroke:#A80036;stroke-width:1.0;stroke-dasharray:7.0,7.0;"/><polygon fill="#A80036" points="314.34,848.72,324.1876,848.8772,318.9409,846.7625,321.0556,841.5158,314.34,848.72" style="stroke:#A80036;stroke-width:1.0;"/><text fill="#000000" font-family="sans-serif" font-size="13" lengthAdjust="spacing" textLength="60" x="369" y="562.4951">«extends»</text><!--MD5=[ac1acf0351af4a9ea02073e18d4de4a7]
reverse link sel_source to sel_dvd--><path d="M287.16,871.79 C309.97,882.05 340.01,895.23 367,906 C403.43,920.54 412.51,924.48 450,936 C478.92,944.89 511.86,953.29 537.78,959.52 " fill="none" id="sel_source-backto-sel_dvd" style="stroke:#A80036;stroke-width:1.0;stroke-dasharray:7.0,7.0;"/><polygon fill="#A80036" points="282.4,869.64,288.9572,876.9887,286.9572,871.6972,292.2487,869.6971,282.4,869.64" style="stroke:#A80036;stroke-width:1.0;"/><text fill="#000000" font-family="sans-serif" font-size="13" lengthAdjust="spacing" textLength="60" x="369" y="902.4951">«extends»</text><!--MD5=[10b582d7cc277e2de9f0f7ae2bf0167f]
reverse link sel_source to sel_source_touchscreen--><path d="M329.91,844.03 C381.15,836.95 447.71,827.76 499.78,820.57 " fill="none" id="sel_source-backto-sel_source_touchscreen" style="stroke:#A80036;stroke-width:1.0;"/><polygon fill="none" points="330.8,850.97,310.03,846.78,328.89,837.11,330.8,850.97" style="stroke:#A80036;stroke-width:1.0;"/><!--MD5=[440f0806ce86e846cce9f9090a773422]
reverse link sel_source to sel_source_knob--><path d="M325.06,838.88 C329.15,837.39 333.16,835.76 337,834 C393.17,808.24 396.06,783.14 450,753 C473.92,739.64 501.67,727.5 525.65,717.97 " fill="none" id="sel_source-backto-sel_source_knob" style="stroke:#A80036;stroke-width:1.0;"/><polygon fill="none" points="326.74,845.69,305.56,844.99,322.55,832.33,326.74,845.69" style="stroke:#A80036;stroke-width:1.0;"/><!--MD5=[df5647dcb894cebe9410780fba1f5521]
link sel_source to show_source_control_screen--><path d="M310.54,847.1 C319.98,844.03 329.19,839.81 337,834 C337.62,833.54 449.4,641.49 450,641 C461.94,631.35 476.06,623.79 490.59,617.87 " fill="none" id="sel_source-to-show_source_control_screen" style="stroke:#A80036;stroke-width:1.0;stroke-dasharray:7.0,7.0;"/><polygon fill="#A80036" points="495.53,615.92,485.6896,615.5121,490.8808,617.7597,488.6332,622.9509,495.53,615.92" style="stroke:#A80036;stroke-width:1.0;"/><text fill="#000000" font-family="sans-serif" font-size="13" lengthAdjust="spacing" textLength="62" x="368" y="670.4951">«includes»</text><!--MD5=[ecadfd4736aaab03453ba9e141479b59]
link user to sel_source--><path d="M56,1441.27 C66.79,1372.3 92.07,1228.64 131,1112 C161.42,1020.85 214.07,918.74 237.13,875.79 " fill="none" id="user-to-sel_source" style="stroke:#A80036;stroke-width:1.0;"/><polygon fill="#A80036" points="239.53,871.34,231.7389,877.3648,237.1578,875.7414,238.7812,881.1604,239.53,871.34" style="stroke:#A80036;stroke-width:1.0;"/><!--MD5=[9cc1850590fb36a09315a81c7b1d5ac1]
link user to chg_radio_station--><path d="M50.28,1441.32 C51.87,1277.42 62.37,665.79 131,487 C151.3,434.12 195.75,384.16 223.79,356.16 " fill="none" id="user-to-chg_radio_station" style="stroke:#A80036;stroke-width:1.0;"/><polygon fill="#A80036" points="227.46,352.53,218.2464,356.0098,223.9031,356.044,223.8688,361.7008,227.46,352.53" style="stroke:#A80036;stroke-width:1.0;"/><!--MD5=[c68638f339074eedd19c5a045dac93f5]
link user to adj_vol--><path d="M92.1,1442.55 C133.65,1403.61 195.49,1345.67 227.54,1315.64 " fill="none" id="user-to-adj_vol" style="stroke:#A80036;stroke-width:1.0;"/><polygon fill="#A80036" points="231.3,1312.12,221.9917,1315.3379,227.6452,1315.5321,227.451,1321.1856,231.3,1312.12" style="stroke:#A80036;stroke-width:1.0;"/><!--MD5=[8b05f519d0371649ff13b89d61f55655]
link adj_vol to adj_vol_knob--><path d="M307.37,1305.56 C360.22,1314.45 439.59,1327.8 499.7,1337.91 " fill="none" id="adj_vol-to-adj_vol_knob" style="stroke:#A80036;stroke-width:1.0;"/><polygon fill="#A80036" points="504.72,1338.75,496.5077,1333.3133,499.7892,1337.9211,495.1814,1341.2025,504.72,1338.75" style="stroke:#A80036;stroke-width:1.0;"/><!--MD5=[46e85d953ba5e8042259a0d99ff70a43]
link adj_vol to adj_vol_touch--><path d="M307.74,1286.55 C358.29,1278.2 432.88,1265.88 491.74,1256.16 " fill="none" id="adj_vol-to-adj_vol_touch" style="stroke:#A80036;stroke-width:1.0;"/><polygon fill="#A80036" points="497.03,1255.28,487.4983,1252.8006,492.0969,1256.095,488.8024,1260.6936,497.03,1255.28" style="stroke:#A80036;stroke-width:1.0;"/><!--MD5=[4b72f12c2f9e3f6970c8c6f3f14dded6]
link adj_vol to show_vol_level--><path d="M274.14,1280.4 C310.58,1256.92 383.25,1212.36 450,1185 C471.52,1176.18 495.82,1168.74 517.74,1162.91 " fill="none" id="adj_vol-to-show_vol_level" style="stroke:#A80036;stroke-width:1.0;stroke-dasharray:7.0,7.0;"/><polygon fill="#A80036" points="522.67,1161.61,512.9481,1160.0336,517.8348,1162.8832,514.9852,1167.7699,522.67,1161.61" style="stroke:#A80036;stroke-width:1.0;"/><text fill="#000000" font-family="sans-serif" font-size="13" lengthAdjust="spacing" textLength="62" x="368" y="1191.4951">«includes»</text><!--MD5=[d990a02787fff9783c628c6800e1ddc0]
reverse link chg_radio_station to change_ir_station--><path d="M312.38,308.1 C375.01,282.9 470.85,244.33 530.21,220.44 " fill="none" id="chg_radio_station-backto-change_ir_station" style="stroke:#A80036;stroke-width:1.0;"/><polygon fill="none" points="314.86,314.65,293.69,315.62,309.63,301.66,314.86,314.65" style="stroke:#A80036;stroke-width:1.0;"/><!--MD5=[3513b504ededfc656cd41e33041eaf99]
reverse link change_ir_station to show_groups--><path d="M700.24,201.25 C743.17,202.09 791.76,203.04 834.09,203.87 " fill="none" id="change_ir_station-backto-show_groups" style="stroke:#A80036;stroke-width:1.0;stroke-dasharray:7.0,7.0;"/><polygon fill="#A80036" points="695.04,201.15,703.9582,205.3292,700.039,201.25,704.1182,197.3308,695.04,201.15" style="stroke:#A80036;stroke-width:1.0;"/><text fill="#000000" font-family="sans-serif" font-size="13" lengthAdjust="spacing" textLength="62" x="741" y="199.4951">«includes»</text><!--MD5=[4e781eea438bcdfd27df75504ac8a1e4]
reverse link change_ir_station to show_stations--><path d="M666.1,180.03 C724.72,166.24 803.72,147.65 862.25,133.88 " fill="none" id="change_ir_station-backto-show_stations" style="stroke:#A80036;stroke-width:1.0;stroke-dasharray:7.0,7.0;"/><polygon fill="#A80036" points="661.21,181.19,670.8869,183.0223,666.0771,180.0448,669.0546,175.235,661.21,181.19" style="stroke:#A80036;stroke-width:1.0;"/><text fill="#000000" font-family="sans-serif" font-size="13" lengthAdjust="spacing" textLength="62" x="741" y="146.4951">«includes»</text><!--MD5=[28f0fdb6df6c15cadfe6a3ac8418c46d]
reverse link show_groups to load_ir_stations--><path d="M1042.86,190.8 C1089.59,183.58 1145.08,175 1190.73,167.95 " fill="none" id="show_groups-backto-load_ir_stations" style="stroke:#A80036;stroke-width:1.0;stroke-dasharray:7.0,7.0;"/><polygon fill="#A80036" points="1037.79,191.58,1047.2992,194.1443,1042.7302,190.809,1046.0655,186.24,1037.79,191.58" style="stroke:#A80036;stroke-width:1.0;"/><text fill="#000000" font-family="sans-serif" font-size="13" lengthAdjust="spacing" textLength="62" x="1084" y="172.4951">«includes»</text><!--MD5=[5b47405baac0b5bec7fe88cf337d5a3c]
reverse link show_stations to load_ir_stations--><path d="M1048.66,127.07 C1092.32,132.13 1142.76,137.98 1185.46,142.93 " fill="none" id="show_stations-backto-load_ir_stations" style="stroke:#A80036;stroke-width:1.0;stroke-dasharray:7.0,7.0;"/><polygon fill="#A80036" points="1043.64,126.49,1052.1227,131.4943,1048.6071,127.0626,1053.0389,123.547,1043.64,126.49" style="stroke:#A80036;stroke-width:1.0;"/><text fill="#000000" font-family="sans-serif" font-size="13" lengthAdjust="spacing" textLength="62" x="1084" y="129.4951">«includes»</text><!--MD5=[c282bfd6853bf776fc3b5b92382f5570]
reverse link sel_radio_station to select_dab_station--><path d="M682.16,407.92 C733.32,407.34 795.93,406.64 846.93,406.07 " fill="none" id="sel_radio_station-backto-select_dab_station" style="stroke:#A80036;stroke-width:1.0;"/><polygon fill="none" points="682.16,414.92,662.09,408.14,682.01,400.92,682.16,414.92" style="stroke:#A80036;stroke-width:1.0;"/><!--MD5=[5f52a5f4cd48c7c552a5a4223421bf26]
reverse link chg_radio_station to change_dab_station--><path d="M357.32,333 C397.57,333 443.18,333 482.85,333 " fill="none" id="chg_radio_station-backto-change_dab_station" style="stroke:#A80036;stroke-width:1.0;"/><polygon fill="none" points="357.12,340,337.12,333,357.12,326,357.12,340" style="stroke:#A80036;stroke-width:1.0;"/><!--MD5=[84690c8c7f46dc7c0270357e8a9365f1]
link user to chg_cd_track--><path d="M59.51,1522.62 C70.48,1560.62 92.2,1616.29 131,1649 C145.69,1661.39 164.68,1669.26 183.09,1674.27 " fill="none" id="user-to-chg_cd_track" style="stroke:#A80036;stroke-width:1.0;"/><polygon fill="#A80036" points="188.26,1675.61,180.5582,1669.4714,183.4213,1674.3502,178.5425,1677.2134,188.26,1675.61" style="stroke:#A80036;stroke-width:1.0;"/><!--MD5=[211e43e2b7cfc75e850e1ad562cd7983]
link user to pause_track--><path d="M92.14,1500.15 C104.55,1505.23 118.23,1510.57 131,1515 C152.91,1522.61 177.52,1529.92 198.53,1535.79 " fill="none" id="user-to-pause_track" style="stroke:#A80036;stroke-width:1.0;"/><polygon fill="#A80036" points="203.52,1537.18,195.9208,1530.9148,198.7028,1535.8403,193.7773,1538.6223,203.52,1537.18" style="stroke:#A80036;stroke-width:1.0;"/><!--MD5=[588cac8741b26f86f178db05d3be508c]
link user to stop_play--><path d="M74.33,1522.63 C88.51,1543.13 108.1,1566.81 131,1582 C148.05,1593.31 168.9,1600.92 188.29,1606.02 " fill="none" id="user-to-stop_play" style="stroke:#A80036;stroke-width:1.0;"/><polygon fill="#A80036" points="193.18,1607.26,185.4568,1601.1483,188.3369,1606.0171,183.4682,1608.8972,193.18,1607.26" style="stroke:#A80036;stroke-width:1.0;"/><!--MD5=[21687589834c2b6e898a7c6ce330f7e6]
link user to play_track--><path d="M92.1,1482 C120.07,1482 157.23,1482 188.3,1482 " fill="none" id="user-to-play_track" style="stroke:#A80036;stroke-width:1.0;"/><polygon fill="#A80036" points="193.63,1482,184.63,1478,188.63,1482,184.63,1486,193.63,1482" style="stroke:#A80036;stroke-width:1.0;"/><!--MD5=[33cb1c1576635fb5df6f89e919952cdf]
reverse link chg_cd_track to sel_cd_track--><path d="M325.23,1698.27 C329.27,1699.72 333.21,1701.29 337,1703 C365.15,1715.73 421.99,1770.96 450,1784 C474.83,1795.56 504.15,1803.58 528.98,1808.91 " fill="none" id="chg_cd_track-backto-sel_cd_track" style="stroke:#A80036;stroke-width:1.0;"/><polygon fill="none" points="323.11,1704.94,306.02,1692.41,327.19,1691.55,323.11,1704.94" style="stroke:#A80036;stroke-width:1.0;"/><!--MD5=[618dbe4a2e370e9520a00a9b129bf83b]
reverse link chg_cd_track to jump_next_track--><path d="M325.71,1695.65 C383.47,1705.36 462.43,1718.64 517.7,1727.93 " fill="none" id="chg_cd_track-backto-jump_next_track" style="stroke:#A80036;stroke-width:1.0;"/><polygon fill="none" points="324.42,1702.53,305.86,1692.31,326.75,1688.72,324.42,1702.53" style="stroke:#A80036;stroke-width:1.0;"/><!--MD5=[633681f2297ffaf4e3ce828434371679]
reverse link chg_cd_track to jump_prev_track--><path d="M332.96,1674.33 C383.08,1669.07 446.98,1662.35 497.7,1657.02 " fill="none" id="chg_cd_track-backto-jump_prev_track" style="stroke:#A80036;stroke-width:1.0;"/><polygon fill="none" points="333.37,1681.33,312.74,1676.46,331.9,1667.41,333.37,1681.33" style="stroke:#A80036;stroke-width:1.0;"/><!--MD5=[843d5dca74fdeb2298dc2b69e0604baf]
link chg_cd_track to show_cd_track_number--><path d="M285.91,1669.26 C301.6,1663.13 320.25,1655.78 337,1649 C387.43,1628.61 398.71,1620.1 450,1602 C471.08,1594.56 494.37,1587.4 515.52,1581.29 " fill="none" id="chg_cd_track-to-show_cd_track_number" style="stroke:#A80036;stroke-width:1.0;stroke-dasharray:7.0,7.0;"/><polygon fill="#A80036" points="520.56,1579.85,510.8047,1578.4955,515.7551,1581.233,513.0176,1586.1834,520.56,1579.85" style="stroke:#A80036;stroke-width:1.0;"/><text fill="#000000" font-family="sans-serif" font-size="13" lengthAdjust="spacing" textLength="62" x="368" y="1606.4951">«includes»</text><!--MD5=[730b856a4da3859d2afae18a27ab75b1]
link chg_cd_track to show_cd_track_title--><path d="M298.22,1671.56 C312,1666.45 326.2,1659.19 337,1649 C360.14,1627.16 346.88,1608.65 367,1584 C395.95,1548.54 408.82,1543 450,1523 C469.73,1513.42 492.34,1505.97 513.28,1500.35 " fill="none" id="chg_cd_track-to-show_cd_track_title" style="stroke:#A80036;stroke-width:1.0;stroke-dasharray:7.0,7.0;"/><polygon fill="#A80036" points="518.28,1499.03,508.5593,1497.4465,513.4439,1500.2997,510.5907,1505.1843,518.28,1499.03" style="stroke:#A80036;stroke-width:1.0;"/><text fill="#000000" font-family="sans-serif" font-size="13" lengthAdjust="spacing" textLength="62" x="368" y="1529.4951">«includes»</text><!--MD5=[d95392a1e199cafb8465981bea48ba34]
@startuml
skinparam actorStyle awesome
left to right direction

actor "Amplifer User" as user

rectangle Amplifier-Module {
    ' Select source
    package Select-Source {
        usecase (Select CD) as sel_cd 
        usecase (Select DVD) as sel_dvd
        usecase (Select DAB radio) as sel_dab
        usecase (Select source) as sel_source
        usecase (Select source \n from touchscreen) as sel_source_touchscreen <<touchscreen>>
        usecase (Select source \n from knob) as sel_source_knob <<physical>>
        usecase (Display source control screen) as show_source_control_screen <<touchscreen>>
        
        (sel_source)  <.. (sel_dab) : << extends >>
        (sel_source)  <.. (sel_cd) : << extends >>  
        (sel_source)  <.. (sel_ir) : << extends >>
        (sel_source)  <.. (sel_dvd) : << extends >>

        (sel_source) <|- - (sel_source_touchscreen)
        (sel_source) <|- - (sel_source_knob)
        (sel_source)  ..> (show_source_control_screen) : << includes >>
        
    }




    
    usecase (Change radio station)  as chg_radio_station
    :user: - -> (sel_source)
    :user: - -> (chg_radio_station)



    package Volume {
        usecase (Adjust volume) as adj_vol

        :user: - -> (adj_vol)
        usecase (Adjust volume \n with volume knob) as adj_vol_knob   <<physical>>
        usecase (Adjust volume \n using touch screen) as adj_vol_touch <<touchscreen>>
        (adj_vol) - -> (adj_vol_knob)
        (adj_vol) - -> (adj_vol_touch)

        usecase (Display volume level) as show_vol_level
        (adj_vol) ..> (show_vol_level) : << includes >>
    }



    package Internet-Radio {
        
        usecase (Change internet radio station) as change_ir_station

        
        (chg_radio_station) <|- - (change_ir_station)   

        usecase (Display internet radio \n station groups) as show_groups
        usecase (Display internet radio \n stations in group) as show_stations

        (change_ir_station) <.. (show_groups) : << includes >>
        (change_ir_station) <.. (show_stations) : << includes >>

        usecase (Load internet radion \n stations from web) as load_ir_stations

        (show_groups) <.. load_ir_stations : << includes >>
        (show_stations) <.. load_ir_stations : << includes >>
        

    }

    package DAB-Radio {
        usecase "Select DAB radio station" as select_dab_station
        usecase "Change DAB radio station" as change_dab_station
        (sel_radio_station) <|- - (select_dab_station)
        (chg_radio_station) <|- - (change_dab_station)    
    }


    package CD/DVD {
        usecase (Play track) as play_track
        usecase (Pause Track) as pause_track
        usecase (Stop playing) as stop_play
        usecase (Change track) as chg_cd_track
        usecase (Select Track) as sel_cd_track
        usecase (Jump to next \n track) as jump_next_track
        usecase (Jump to previous \n track) as jump_prev_track


        :user: - -> (chg_cd_track)
        :user: - -> (pause_track)
        :user: - -> (stop_play)
        :user: - -> (play_track)
        (chg_cd_track) <|- - (sel_cd_track)
        (chg_cd_track) <|- - (jump_next_track)
        (chg_cd_track) <|- - (jump_prev_track)

        usecase (Display CD track number) as show_cd_track_number
        usecase (Display CD track title) as show_cd_track_title

        (chg_cd_track) ..> show_cd_track_number : << includes >>
        (chg_cd_track) ..> show_cd_track_title : << includes >>
        
        

    }

    package Media-Centre {

    }



}

newpage 
actor "App User" as app_user

rectangle App {

}


@enduml

@startuml
skinparam actorStyle awesome
left to right direction

actor "Amplifer User" as user

rectangle Amplifier-Module {
    package Select-Source {
        usecase (Select CD) as sel_cd 
        usecase (Select DVD) as sel_dvd
        usecase (Select DAB radio) as sel_dab
        usecase (Select source) as sel_source
        usecase (Select source \n from touchscreen) as sel_source_touchscreen <<touchscreen>>
        usecase (Select source \n from knob) as sel_source_knob <<physical>>
        usecase (Display source control screen) as show_source_control_screen <<touchscreen>>
        
        (sel_source)  <.. (sel_dab) : << extends >>
        (sel_source)  <.. (sel_cd) : << extends >>  
        (sel_source)  <.. (sel_ir) : << extends >>
        (sel_source)  <.. (sel_dvd) : << extends >>

        (sel_source) <|- - (sel_source_touchscreen)
        (sel_source) <|- - (sel_source_knob)
        (sel_source)  ..> (show_source_control_screen) : << includes >>
        
    }




    
    usecase (Change radio station)  as chg_radio_station
    :user: - -> (sel_source)
    :user: - -> (chg_radio_station)



    package Volume {
        usecase (Adjust volume) as adj_vol

        :user: - -> (adj_vol)
        usecase (Adjust volume \n with volume knob) as adj_vol_knob   <<physical>>
        usecase (Adjust volume \n using touch screen) as adj_vol_touch <<touchscreen>>
        (adj_vol) - -> (adj_vol_knob)
        (adj_vol) - -> (adj_vol_touch)

        usecase (Display volume level) as show_vol_level
        (adj_vol) ..> (show_vol_level) : << includes >>
    }



    package Internet-Radio {
        
        usecase (Change internet radio station) as change_ir_station

        
        (chg_radio_station) <|- - (change_ir_station)   

        usecase (Display internet radio \n station groups) as show_groups
        usecase (Display internet radio \n stations in group) as show_stations

        (change_ir_station) <.. (show_groups) : << includes >>
        (change_ir_station) <.. (show_stations) : << includes >>

        usecase (Load internet radion \n stations from web) as load_ir_stations

        (show_groups) <.. load_ir_stations : << includes >>
        (show_stations) <.. load_ir_stations : << includes >>
        

    }

    package DAB-Radio {
        usecase "Select DAB radio station" as select_dab_station
        usecase "Change DAB radio station" as change_dab_station
        (sel_radio_station) <|- - (select_dab_station)
        (chg_radio_station) <|- - (change_dab_station)    
    }


    package CD/DVD {
        usecase (Play track) as play_track
        usecase (Pause Track) as pause_track
        usecase (Stop playing) as stop_play
        usecase (Change track) as chg_cd_track
        usecase (Select Track) as sel_cd_track
        usecase (Jump to next \n track) as jump_next_track
        usecase (Jump to previous \n track) as jump_prev_track


        :user: - -> (chg_cd_track)
        :user: - -> (pause_track)
        :user: - -> (stop_play)
        :user: - -> (play_track)
        (chg_cd_track) <|- - (sel_cd_track)
        (chg_cd_track) <|- - (jump_next_track)
        (chg_cd_track) <|- - (jump_prev_track)

        usecase (Display CD track number) as show_cd_track_number
        usecase (Display CD track title) as show_cd_track_title

        (chg_cd_track) ..> show_cd_track_number : << includes >>
        (chg_cd_track) ..> show_cd_track_title : << includes >>
        
        

    }

    package Media-Centre {

    }



}

newpage 
actor "App User" as app_user

rectangle App {

}


@enduml

PlantUML version 1.2022.0(Tue Jan 11 17:16:42 CET 2022)
(GPL source distribution)
Java Runtime: Java(TM) SE Runtime Environment
JVM: Java HotSpot(TM) 64-Bit Server VM
Default Encoding: Cp1252
Language: en
Country: GB
--></g></svg>